<svg xmlns="http://www.w3.org/2000/svg" viewBox="0 0 1661.14 1630.29"><defs><style>.cls-1{fill:none;stroke:#fff;stroke-miterlimit:10;stroke-width:60px;}.cls-1,.cls-3,.cls-4{opacity:0.2;}.cls-2,.cls-3,.cls-4{fill:#fff;}.cls-2{opacity:0.3;}.cls-4{font-size:150px;font-family:BritannicBold, Britannic Bold;}</style></defs><title>LOGO_OFICINA (1)</title><g id="Capa_2" data-name="Capa 2"><circle class="cls-1" cx="836.13" cy="812.5" r="764.62"/><rect class="cls-2" x="807.78" y="1149.89" width="422.89" height="28.35"/><path class="cls-3" d="M751,1143.72V576.79H553v682.45c-.09,1.71-1.16,16.7-14.24,25.49a33.08,33.08,0,0,1-24.36,4.75h0A99,99,0,1,0,427,1342.14h0c33.08,1.49,85.65-.79,143.44-24.57,114.64-47.2,166.42-144.74,180.55-173.87Z"/><path class="cls-3" d="M807.69,1030.76l.09,56.69h198.33V520.52h56.7V492.17h-57.16V399.73s0-54.3,0-88.56c-1.55-25.14-1.23-61.32,38.61-57.22-46.53,93.26,55.08,182.2,139.94,130.68,84.49-55.23,45.92-182-52.53-183.34h0c-176.25-7.45-285.22,112.31-324,199.89v91H751v28.35h56.69Z"/><text class="cls-4" transform="translate(807.78 1321.99)">Group</text></g></svg>