<svg xmlns="http://www.w3.org/2000/svg" viewBox="0 0 632.82 800.3"><defs><style>.cls-1{fill:#fff;stroke:#000;stroke-miterlimit:10;}</style></defs><title>LOGO_OFICINA</title><g id="Capa_2" data-name="Capa 2"><path class="cls-1" d="M296.53,660.94V263.48H157.75V660.94h0v81c-.07,1.2-.81,11.71-10,17.87a23.2,23.2,0,0,1-17.08,3.33h0A69.37,69.37,0,1,0,69.4,800.05h0A236.42,236.42,0,0,0,170,782.82c80.38-33.09,116.68-101.47,126.58-121.9Z"/><path class="cls-1" d="M336.28,581.75l.06,39.74H475.39V224h39.74V204.16H475.06V139.34h0s0-38.06,0-62.08c-1.09-17.63-.86-43,27.07-40.12-32.62,65.38,38.62,127.74,98.11,91.62C659.47,90,632.43,1.15,563.41.23h0C439.85-5,363.46,79,336.28,140.37v63.79H296.53V224h39.75Z"/></g></svg>